<?xml version="1.0" encoding="utf-8"?>
<!-- Generator: Adobe Illustrator 15.0.0, SVG Export Plug-In . SVG Version: 6.00 Build 0)  -->
<!DOCTYPE svg PUBLIC "-//W3C//DTD SVG 1.1//EN" "http://www.w3.org/Graphics/SVG/1.1/DTD/svg11.dtd">
<svg version="1.1" id="Layer_1" xmlns="http://www.w3.org/2000/svg" xmlns:xlink="http://www.w3.org/1999/xlink" x="0px" y="0px"
	 width="175px" height="175px" viewBox="0 0 175 175" enable-background="new 0 0 175 175" xml:space="preserve">
<ellipse fill="#FFFFFF" cx="87.765" cy="87.752" rx="76.766" ry="73.799"/>
<path fill="#103D60" d="M112.652,36.625c0,0-2.471-1.976-5.83-1.877s-6.324,1.877-6.324,1.877s-3.457-4.051-5.83-3.854
	c-2.371,0.198-3.951,1.976-5.037,5.138c-1.088,3.162-1.385,7.411-1.385,8.498s-0.791,2.372-0.791,2.372S78.86,61.131,74.611,68.937
	c-4.25,7.806-11.857,19.071-12.352,33.991c0,0,0,4.15,1.186,6.916l0.494,0.988c0,0-1.285,0-2.668,1.878
	c-1.383,1.878-6.917,5.731-9.683,8.003c-2.767,2.273-6.522,7.905-6.423,13.439c0.099,5.533,13.241,11.066,26.778,7.41
	c13.538-3.656,20.354-1.58,23.616-0.395c3.26,1.186,3.26,0.593,1.779-1.186c-1.482-1.779-6.027-3.854-10.475-4.744
	c-4.446-0.889-11.561,1.186-14.821,1.878s-12.647,1.778-15.513-1.778c-2.865-3.557,3.063-9.782,6.719-11.561
	c3.657-1.779,6.818-1.482,7.114-2.965c0.297-1.482,1.384-1.285,1.384-1.285s0.889,3.559,1.779,3.656c0.889,0.1-1.285,1.977,0,4.052
	c1.284,2.075,1.581,0,0.79,1.778c-0.79,1.779-0.692,3.656,0.197,2.965c0.89-0.691,2.372-2.668,3.558-3.162
	c0,0,0.791,0.889,1.482,0.099c0,0,2.174,2.272,3.161,3.558c0.989,1.284,0.692-1.482,0.1-3.262c-0.593-1.778-1.186-1.877-1.186-1.877
	s1.383-0.197,0.988-1.284c0,0,2.173-0.593,4.347,1.778c2.175,2.371,0.1-1.977-1.186-3.162c-1.284-1.186-3.161-0.889-3.161-0.889
	s0.79-0.691,0.395-1.582c-0.395-0.889,1.087,0.791,4.446,2.175c3.361,1.383,12.351,4.051,22.035-2.965s11.857-12.352,14.031-17.292
	s1.582-9.881,0-11.264c-1.58-1.385-2.371-0.692-2.371-0.692s-0.691-9.683-2.865-15.217s-2.174-5.534-2.174-5.534
	s0.297-0.988,1.977-1.186s2.471,0.692,2.471,0.692l0.295,2.174c0,0,3.359,1.976,7.312,0v-8.498l1.088-1.482
	c0,0-4.447-0.176-7.51-0.099c-1.637,0.041-1.793,0.024-1.793,0.024l0.014,1.26v1.086c0,0-1.088-0.198-2.768-1.581
	s-2.963-1.383-2.963-1.383s0.395-2.372,0.691-2.767s1.186,0.395,3.359-1.68c2.174-2.075,3.262-3.261,3.262-3.261
	s1.283,0.099,2.371-1.482c1.086-1.581,0.789-2.569,0.789-2.569l0.1-1.087c0,0,1.186-0.296,0.988-1.581
	c-0.197-1.284-1.383-1.482-1.383-1.482l-1.68-0.791l-2.57-3.261c0,0,0.396-1.087,0.494-4.249c0.1-3.162-0.395-4.15-2.273-4.249
	C116.506,33.859,114.037,35.242,112.652,36.625z"/>
<path fill="#103D60" d="M127.705,64.918c0,0,1.186-0.066,1.844,0.527s-0.789,1.449-1.383,1.713c-0.592,0.264,0.732,0.856,1.551,1.12
	c0.82,0.264,0.623,0.922-0.463,1.054c-1.088,0.131-2.01,0-2.01,0s1.713,0.922,2.635,1.317c0.922,0.396,0.541,1.647-1.145,1.251
	c-1.688-0.395-2.676-0.263-2.676-0.263L127.705,64.918z"/>
<ellipse fill="#103D60" cx="122.238" cy="58.298" rx="0.988" ry="0.89"/>
<ellipse fill="#103D60" cx="126.938" cy="59.023" rx="1.275" ry="1.218"/>
<circle fill="#103D60" cx="128.199" cy="53.555" r="1.746"/>
<ellipse fill="#103D60" cx="124.05" cy="61.855" rx="0.823" ry="0.757"/>
<path fill="#103D60" d="M120.789,44.958c0.064-0.263,0.791-2.701,3.26-4.875c0,0-1.35,2.306-1.811,4.348
	C121.775,46.474,120.789,44.958,120.789,44.958z"/>
<path fill="#103D60" d="M130.367,39.425c0,0-5.381-0.032-9.424,5.056c-4.041,5.088-0.879,2.651-0.879,2.651l1.975-2.108
	C122.039,45.024,125.455,41.006,130.367,39.425z"/>
<path fill="#103D60" d="M129.254,42.792c0,0-3.953-0.073-6.836,3.287c-2.881,3.359-1.104,2.635-0.443,1.91
	C122.633,47.264,124.543,44.248,129.254,42.792z"/>
<path fill="#103D60" d="M129.254,44.102c0,0-4.578-0.527-8.004,2.701c-3.426,3.228-0.725,2.898,0,2.042
	C121.975,47.989,124.807,44.827,129.254,44.102z"/>
<path fill="#103D60" d="M119.553,70.337c0,0-1.268,1.465-4.727,3.046s-4.742-1.523-4.742-1.523s0.789-1.011,1.383-1.523
	c0.592-0.511,4.842-1.788,5.236-1.891C117.1,68.344,119.553,70.337,119.553,70.337z"/>
<path fill="#103D60" d="M114.133,117.683c0,0,0.859,0.132,1.057,0.857s2.963-0.065,4.412,0.988s1.779,1.317,1.186,1.252
	c-0.592-0.066-1.83-0.528-3.188-0.462s-0.697,0.085-0.236,0.471c0.461,0.387,1.908-0.273,4.609,1.111
	c2.701,1.383,2.307,1.119,1.779,1.186c-0.527,0.065-2.123-0.725-4.619-0.658c-2.496,0.064-3.615,0.395-3.615,0.395
	s2.109-0.131,4.02,0.593c1.91,0.726,2.965,1.317,2.965,1.317s-0.264,0.527-1.385,0c-1.119-0.527-7.84-0.856-7.84-0.856
	s-0.789-0.987-1.119-0.658s0.33,1.251-1.779,1.251c-2.107,0-4.742-4.874-4.742-4.874L114.133,117.683z"/>
<path fill="#103D60" d="M119.957,63.535c0,0-0.824-0.499-0.006-0.502c0.82-0.003,0.426,0.502,0.426,0.502H119.957z"/>
</svg>
