<?xml version="1.0" encoding="utf-8"?>
<!-- Generator: Adobe Illustrator 15.0.0, SVG Export Plug-In . SVG Version: 6.00 Build 0)  -->
<!DOCTYPE svg PUBLIC "-//W3C//DTD SVG 1.1//EN" "http://www.w3.org/Graphics/SVG/1.1/DTD/svg11.dtd">
<svg version="1.1" id="Layer_1" xmlns="http://www.w3.org/2000/svg" xmlns:xlink="http://www.w3.org/1999/xlink" x="0px" y="0px"
	 width="450px" height="450px" viewBox="0 0 450 450" enable-background="new 0 0 450 450" xml:space="preserve">
<path d="M222.534,104.396c0,0-1.046,0-1.046-1.22c0-1.221-1.919-1.395-2.616-0.872c-0.697,0.523-0.697,0.523-0.697,0.523
	l-95.035-2.441l-64.693-1.917c0,0-1.395-0.697-2.092,0c-0.698,0.697-5.231-0.174-7.847,3.662c-2.616,3.836-3.488,4.36-4.185,14.647
	c-0.697,10.288-2.267,47.43-2.267,47.43l-5.58,84.049l-5.231,74.459c0,0,0,0.348,1.395,2.44c1.395,2.092,1.569,2.092,4.011,3.662
	c2.441,1.569,2.79,2.267,4.011,2.267c1.22,0,34.875,2.615,35.921,2.093c1.046-0.523,71.842,2.092,71.842,2.092
	s55.276,3.487,56.323,3.139c1.046-0.349-0.35,0.523,4.708,1.744c5.057,1.22,16.564,2.267,17.96,1.744
	c1.396-0.524,1.396-0.524,1.396-0.524l133.571,6.453c0,0,29.469,1.743,31.213,1.046s3.313-1.221,4.185-1.221
	c0.873,0,1.57-2.441,1.57-2.441l-157.81-7.498c0,0-17.439-0.871-19.008-0.174c-1.569,0.697-2.44-0.872-2.267,0.522
	c0.175,1.396-4.011,0.523-6.103,0c-2.093-0.522-3.662-1.221-4.534-1.744c-0.872-0.522-2.441-1.568-2.441-1.568l-113.344-5.232
	l-52.835-2.616l-5.754-0.697l-0.872-1.22l3.139-44.118l4.534-63.646l5.231-79.166l2.093-35.049l1.395,0.174l0.174-1.395l1.22,0.349
	l0.523-1.046l88.583,2.267c0,0,61.555-0.697,70.273,1.395c8.719,2.093,11.856,2.791,14.647,5.929c0,0,19.182-1.744,25.808-1.744
	s36.793,0.698,36.793,0.698s-48.824-2.441-50.045-3.139c-1.222-0.697-5.232,1.569-5.232,1.569L222.534,104.396z"/>
<path d="M288.798,109.627c0,0,62.948,3.531,78.904,4.315c15.954,0.785,34.396,1.7,34.396,1.7v1.177h0.915l1.046,1.177h1.046v0.785
	h1.178v0.654h1.308v1.177h1.308v8.37l-3.27,66.437l-2.877,63.429l-1.831,48.127l-1.712,38.671c0,0,2.234-2.443,3.412-6.105
	c1.177-3.662,1.308-18.963,1.962-30.733c0.653-11.771,3.139-74.415,3.139-74.415l2.354-59.244l2.354-47.997c0,0,0.523-3.793,0-4.447
	c-0.523-0.653-4.97-6.016-4.97-6.016s-2.354-0.785-3.4-0.785s-1.177-1.308-1.177-1.308l-60.159-3.269L288.798,109.627z"/>
<path d="M207.45,335.53c0,0,2.441-0.784,3.052-0.523c0.61,0.262,0.785,0.349,1.308,0.523c0.523,0.174,1.832,0.174,2.093,0.436
	c0.262,0.262,0.874-0.174,1.396,0c0.522,0.175,1.307-0.525,1.83,0.086s1.482,0.786,2.093,0.699c0.61-0.088,0.961,0.644,1.224,0.708
	s1.385,0.256,1.385,0.256s-2.26,0.179-2.87,0c-0.609-0.18-1.395,0.079-1.395,0.079s-0.175-1.043-1.309-0.782
	c-1.133,0.262-1.616-0.087-1.616-0.087l-0.737-0.087l-0.349,0.436c0,0-0.591-1.813-1.221-0.899s-0.697,0.32-0.872,0
	c-0.174-0.32-0.872-0.408-0.872-0.408s-1.744-0.578-1.831,0.408C208.672,337.361,207.45,335.53,207.45,335.53z"/>
<polygon points="225.151,109.627 221.489,197.164 215.298,298.651 214.64,336.925 215.298,335.966 216.433,298.476 220.617,229.772 
	222.534,197.164 226.72,119.567 228.114,109.627 "/>
<path d="M219.92,334.954l46.384,1.42l74.633,2.557l53.186,1.919l2.79-70.971l2.439-87.013l2.746-67.223l0.849,0.654l-0.915,22.298
	l-1.177,30.407l-1.046,29.164l-0.457,20.99l-0.916,22.168l-0.916,28.641l-1.308,34.657l-1.569,36.815l-60.813-1.962l-80.235-3.008
	c0,0-32.323-0.893-34.395-0.654s-2.943,0.561-2.943,0.561l-0.726-0.382C215.53,335.992,216.717,335.271,219.92,334.954z"/>
<path d="M218.872,336.925c0,0-0.458-0.645,7.912-0.551s26.418,0.551,26.418,0.551l41.654,2.027l51.789,2.158l49.174,1.569
	l0.981-15.105l1.438-31.845l1.113-31.191l0.719-33.153l1.372-28.249l1.047-32.041l1.243-33.873l0.522-16.544l-0.196-2.681
	l0.915-1.046l-1.046,30.996l-0.981,39.103l-1.242,30.604l-1.308,47.343l-3.662,77.684h-33.218l-95.863-1.242l-41.719-2.812
	L218.872,336.925z"/>
<polygon points="359.6,343.319 397.912,343.987 399.352,320.709 401.836,255.71 398.678,345.176 356.716,345.176 "/>
<polygon points="407.198,118.695 404.974,175.89 402.946,213.729 408.244,119.566 "/>
<polygon points="60.888,100.385 58.613,101.234 56.18,160.021 50.426,257.147 45.021,328.467 43.452,328.467 50.078,238.664 
	54.961,160.021 57.053,100.385 "/>
<polygon points="58.244,99.556 55.968,100.406 53.536,159.192 47.781,256.319 42.376,327.638 40.807,327.638 47.434,237.835 
	52.316,159.192 54.408,99.556 "/>
<polygon points="55.131,98.832 53.103,99.682 50.935,158.468 45.806,255.595 40.989,326.915 39.59,326.915 45.496,237.11 
	49.848,158.468 51.712,98.832 "/>
<polygon points="53.55,99.556 51.274,100.406 48.841,159.192 43.087,256.318 37.682,327.638 36.113,327.638 42.739,237.834 
	47.622,159.192 49.714,99.556 "/>
<path d="M387.188,122.052c0,0-0.653,0.327-0.784,0c-0.131-0.328,0.327-1.504,1.242-1.504c0.916,0,1.635,0.327,1.308,1.308
	c-0.326,0.98-1.699,1.503-1.896,2.354h1.57c0,0,0.226-0.262,0.406,0c0.182,0.261-0.145,0.654-0.8,0.654c-0.653,0-1.853,0-1.853,0
	s-0.375-1.365,0.873-1.831c1.247-0.466,1.177-1.374,1.177-1.569C388.431,121.267,387.123,121.07,387.188,122.052z"/>
<path d="M392.093,120.939c0,0,0,0.393-0.589,0.523s-0.981,0-0.981,0v0.589c0,0,0.785,0.13,1.309,0.653
	c0.522,0.523,0.522,2.093-0.916,2.158s-1.569-1.243-0.98-1.504c0.588-0.261,0.649,0.065,0.326,0.654
	c-0.321,0.589,0.851,0.523,1.047,0c0.196-0.523-0.009-1.438-0.43-1.308c-0.421,0.131-0.748,0.068-0.943,0.198
	c-0.196,0.129-0.196-0.721-0.066-1.309c0.131-0.589,0.131-0.589,0.131-0.589L392.093,120.939z"/>
<path d="M68.146,109.758c0,0-0.654,0.327-0.785,0c-0.131-0.327,0.327-1.504,1.243-1.504c0.915,0,1.635,0.327,1.308,1.308
	c-0.327,0.98-1.7,1.504-1.896,2.354h1.569c0,0,0.226-0.262,0.407,0c0.182,0.261-0.146,0.654-0.799,0.654s-1.853,0-1.853,0
	s-0.376-1.365,0.872-1.831s1.177-1.373,1.177-1.569C69.389,108.974,68.082,108.777,68.146,109.758z"/>
<path d="M71.089,111.197l1.111-1.569v1.569h0.523v-2.943c0,0-0.981-0.065-0.817,0.392c0.163,0.458-1.275,2.354-1.537,2.551
	c-0.262,0.196-0.851,0.458,0,0.523c0.85,0.065,1.569,0,1.569,0l-0.261-0.523H71.089z"/>
<path d="M71.808,112.112h-0.483c0,0-0.327,0.719,0.242,0.719c0.568,0,1.353,0.458,1.418,0c0.065-0.458-0.13-0.85-0.261-0.719
	c-0.131,0.131,0-0.363,0-0.363s0.157,0.486,0.274,0c0.118-0.487,0.249-0.552-0.274-0.552c-0.523,0-1.399,0-1.399,0l0.614,0.523
	L71.808,112.112z"/>
<path fill="#D8D8D8" d="M226.21,129.026c0,0,15.418-2.659,23.526-2.397c8.108,0.261,84.224,3.923,84.224,3.923l67.4,3.135
	l-0.055,1.327l-75.978-3.765l-75.678-3.923c0,0-16.889,0.872-23.44,2.877V129.026z"/>
<path fill="#D8D8D8" d="M249.999,108.494l-1.569,37.578l-2.18,53.62l-1.57,43.77l-2.528,62.95l-1.302,29.184l0.61,0.019
	l0.779-16.474l2.092-49.522l1.919-44.813l0.784-25.286l2.965-72.539c0,0-0.197-17.637,1.307-18.484
	C252.809,107.646,249.999,108.494,249.999,108.494z"/>
<path fill="#D8D8D8" d="M200.143,103.637l-1.569,38.068l-2.18,54.319l-1.569,44.339l-2.528,63.771l-1.302,29.564l0.609,0.019
	l0.779-16.688l2.093-50.169l1.918-45.398l0.785-25.614l2.964-73.486c0,0-0.196-17.866,1.307-18.726S200.143,103.637,200.143,103.637
	z"/>
<path fill="#D8D8D8" d="M224.318,129.564c0,0-14.364-3.952-22.065-4.378c-7.701-0.425-80.103-3.215-80.103-3.215l-64.102-2.578
	l-0.067,1.326l72.28,2.676l72.011,2.493c0,0,15.915,2.297,21.941,4.849L224.318,129.564z"/>
<path fill="#D8D8D8" d="M224.348,134.994c0,0-14.396-3.603-22.094-4.063c-7.699-0.46-80.057-3.73-80.057-3.73l-64.065-2.99
	l-0.051,1.152l72.237,3.171l71.964,3.008c0,0,15.925,2.182,21.975,4.471L224.348,134.994z"/>
<path fill="#D8D8D8" d="M223.76,140.421c0,0-14.396-3.603-22.094-4.063s-80.057-3.73-80.057-3.73l-64.065-2.99l-0.052,1.152
	l72.237,3.171l71.965,3.008c0,0,15.925,2.182,21.975,4.471L223.76,140.421z"/>
<path fill="#D8D8D8" d="M223.76,146.795c0,0-14.396-3.603-22.094-4.062c-7.697-0.459-80.056-3.73-80.056-3.73l-64.065-2.989
	l-0.051,1.151l72.236,3.171l71.965,3.008c0,0,15.925,2.183,21.975,4.471L223.76,146.795z"/>
<path fill="#D8D8D8" d="M223.236,152.696c0,0-14.396-3.603-22.094-4.063c-7.698-0.459-80.057-3.73-80.057-3.73l-64.065-2.99
	l-0.051,1.152l72.236,3.171l71.965,3.008c0,0,15.924,2.182,21.975,4.47L223.236,152.696z"/>
<path fill="#D8D8D8" d="M223.236,158.596c0,0-14.396-3.603-22.093-4.063c-7.699-0.459-80.057-3.73-80.057-3.73l-64.065-2.99
	l-0.051,1.152l72.236,3.17l71.965,3.008c0,0,15.924,2.182,21.975,4.471L223.236,158.596z"/>
<path fill="#D8D8D8" d="M222.712,164.496c0,0-14.396-3.603-22.093-4.062c-7.698-0.46-80.057-3.731-80.057-3.731l-64.065-2.989
	l-0.051,1.152l72.236,3.171l71.965,3.008c0,0,15.924,2.183,21.974,4.47L222.712,164.496z"/>
<path fill="#D8D8D8" d="M222.713,170.397c0,0-14.396-3.604-22.094-4.063s-80.057-3.731-80.057-3.731l-64.065-2.989l-0.052,1.151
	l72.237,3.171l71.965,3.008c0,0,15.925,2.182,21.975,4.471L222.713,170.397z"/>
<path fill="#D8D8D8" d="M222.189,177.294c0,0-14.396-3.602-22.094-4.062c-7.698-0.459-80.056-3.73-80.056-3.73l-64.066-2.99
	l-0.051,1.152l72.237,3.171l71.965,3.008c0,0,15.924,2.183,21.975,4.47L222.189,177.294z"/>
<path fill="#D8D8D8" d="M221.91,184.46c0,0-14.396-3.604-22.093-4.063c-7.698-0.459-80.057-3.73-80.057-3.73l-64.066-2.989
	l-0.051,1.151L127.88,178l71.964,3.007c0,0,15.925,2.182,21.975,4.471L221.91,184.46z"/>
<path fill="#D8D8D8" d="M221.911,190.835c0,0-14.396-3.603-22.094-4.063c-7.698-0.459-80.057-3.73-80.057-3.73l-64.065-2.99
	l-0.051,1.152l72.236,3.171l71.965,3.008c0,0,15.924,2.183,21.975,4.471L221.911,190.835z"/>
<path fill="#D8D8D8" d="M221.387,196.735c0,0-14.396-3.603-22.093-4.062c-7.699-0.46-80.057-3.73-80.057-3.73l-64.065-2.99
	l-0.052,1.152l72.237,3.17l71.966,3.009c0,0,15.924,2.182,21.974,4.471L221.387,196.735z"/>
<path fill="#D8D8D8" d="M221.387,202.636c0,0-14.396-3.604-22.093-4.062c-7.698-0.46-80.056-3.731-80.056-3.731l-64.066-2.988
	l-0.051,1.151l72.237,3.171l71.965,3.008c0,0,15.924,2.183,21.974,4.471L221.387,202.636z"/>
<path fill="#D8D8D8" d="M220.863,208.536c0,0-14.396-3.603-22.094-4.062c-7.697-0.46-80.056-3.73-80.056-3.73l-64.065-2.99
	l-0.051,1.152l72.236,3.171l71.965,3.008c0,0,15.925,2.183,21.975,4.471L220.863,208.536z"/>
<path fill="#D8D8D8" d="M220.863,214.437c0,0-14.396-3.603-22.093-4.062c-7.698-0.46-80.057-3.73-80.057-3.73l-64.066-2.989
	l-0.051,1.151l72.237,3.171l71.964,3.008c0,0,15.925,2.183,21.976,4.471L220.863,214.437z"/>
<path fill="#D8D8D8" d="M220.341,221.334c0,0-14.396-3.603-22.094-4.062c-7.699-0.461-80.057-3.731-80.057-3.731l-64.065-2.989
	l-0.051,1.151l72.237,3.171l71.965,3.009c0,0,15.924,2.182,21.974,4.47L220.341,221.334z"/>
<path fill="#D8D8D8" d="M219.275,229.961c0,0-14.396-3.603-22.094-4.062c-7.698-0.46-80.057-3.731-80.057-3.731l-64.065-2.989
	l-0.051,1.151l72.236,3.171l71.964,3.009c0,0,15.925,2.182,21.975,4.471L219.275,229.961z"/>
<path fill="#D8D8D8" d="M218.688,235.388c0,0-14.396-3.603-22.093-4.062c-7.698-0.46-80.057-3.73-80.057-3.73l-64.065-2.989
	l-0.051,1.151l72.237,3.171l71.965,3.009c0,0,15.924,2.182,21.974,4.47L218.688,235.388z"/>
<path fill="#D8D8D8" d="M218.688,241.762c0,0-14.396-3.602-22.093-4.062c-7.698-0.46-80.057-3.73-80.057-3.73l-64.065-2.989
	l-0.052,1.151l72.237,3.17l71.965,3.009c0,0,15.924,2.183,21.974,4.471L218.688,241.762z"/>
<path fill="#D8D8D8" d="M218.164,247.663c0,0-14.396-3.604-22.094-4.062c-7.697-0.46-80.056-3.73-80.056-3.73l-64.066-2.989
	l-0.051,1.151l72.237,3.171l71.965,3.008c0,0,15.925,2.183,21.975,4.471L218.164,247.663z"/>
<path fill="#D8D8D8" d="M218.165,253.564c0,0-14.396-3.604-22.094-4.063s-80.057-3.731-80.057-3.731l-64.065-2.988l-0.051,1.151
	l72.236,3.171l71.965,3.008c0,0,15.924,2.183,21.975,4.471L218.165,253.564z"/>
<path fill="#D8D8D8" d="M217.641,259.464c0,0-14.396-3.603-22.094-4.062c-7.697-0.459-80.056-3.73-80.056-3.73l-64.065-2.99
	l-0.052,1.152l72.237,3.171l71.966,3.008c0,0,15.923,2.183,21.974,4.471L217.641,259.464z"/>
<path fill="#D8D8D8" d="M217.641,265.365c0,0-14.396-3.604-22.093-4.063c-7.698-0.46-80.057-3.73-80.057-3.73l-64.066-2.989
	l-0.051,1.151l72.237,3.171l71.965,3.009c0,0,15.924,2.182,21.974,4.47L217.641,265.365z"/>
<path fill="#D8D8D8" d="M217.117,272.263c0,0-14.396-3.604-22.094-4.063c-7.697-0.459-80.056-3.73-80.056-3.73l-64.065-2.989
	l-0.052,1.152l72.237,3.171l71.965,3.007c0,0,15.925,2.183,21.975,4.472L217.117,272.263z"/>
<path fill="#D8D8D8" d="M216.839,279.428c0,0-14.396-3.603-22.094-4.062s-80.057-3.731-80.057-3.731l-64.065-2.989l-0.051,1.151
	l72.236,3.172l71.965,3.008c0,0,15.924,2.183,21.975,4.471L216.839,279.428z"/>
<path fill="#D8D8D8" d="M216.839,285.803c0,0-14.396-3.604-22.094-4.063c-7.697-0.459-80.056-3.73-80.056-3.73l-64.066-2.989
	l-0.051,1.152l72.237,3.171l71.965,3.007c0,0,15.924,2.183,21.975,4.472L216.839,285.803z"/>
<path fill="#D8D8D8" d="M216.315,291.703c0,0-14.396-3.603-22.094-4.063c-7.699-0.459-80.057-3.73-80.057-3.73L50.1,280.92
	l-0.051,1.151l72.236,3.171l71.964,3.009c0,0,15.925,2.183,21.976,4.47L216.315,291.703z"/>
<path fill="#D8D8D8" d="M216.315,297.604c0,0-14.396-3.604-22.094-4.062c-7.697-0.461-80.056-3.731-80.056-3.731L50.1,286.82
	l-0.052,1.152l72.237,3.17l71.966,3.009c0,0,15.923,2.182,21.974,4.471L216.315,297.604z"/>
<path fill="#D8D8D8" d="M215.791,303.504c0,0-14.396-3.604-22.093-4.062c-7.698-0.46-80.057-3.731-80.057-3.731l-64.065-2.989
	l-0.051,1.152l72.236,3.171l71.965,3.008c0,0,15.924,2.183,21.974,4.471L215.791,303.504z"/>
<path fill="#D8D8D8" d="M215.791,309.404c0,0-14.395-3.603-22.093-4.062s-80.057-3.731-80.057-3.731l-64.065-2.989l-0.051,1.151
	l72.236,3.172l71.965,3.008c0,0,15.925,2.183,21.974,4.47L215.791,309.404z"/>
<path fill="#D8D8D8" d="M215.269,316.302c0,0-14.396-3.603-22.094-4.062c-7.698-0.46-80.057-3.73-80.057-3.73l-64.065-2.99
	l-0.051,1.152l72.236,3.171l71.965,3.008c0,0,15.924,2.183,21.975,4.471L215.269,316.302z"/>
<path fill="#D8D8D8" d="M225.687,134.749c0,0,15.418-2.659,23.526-2.397c8.108,0.261,84.224,3.923,84.224,3.923l67.399,3.136
	l-0.054,1.327l-75.978-3.765l-75.679-3.923c0,0-16.889,0.872-23.439,2.877V134.749z"/>
<path fill="#D8D8D8" d="M225.947,140.75c0,0,15.418-2.659,23.527-2.397c8.108,0.262,84.223,3.923,84.223,3.923l67.4,3.136
	l-0.054,1.327l-75.978-3.765l-75.679-3.924c0,0-16.889,0.872-23.44,2.877V140.75z"/>
<path fill="#D8D8D8" d="M225.424,146.474c0,0,15.419-2.659,23.527-2.397c8.108,0.261,84.223,3.923,84.223,3.923l67.4,3.135
	l-0.055,1.327l-75.978-3.765l-75.678-3.923c0,0-16.889,0.872-23.44,2.877V146.474z"/>
<path fill="#D8D8D8" d="M225.294,152.857c0,0,15.418-2.659,23.526-2.397c8.108,0.262,84.224,3.924,84.224,3.924l67.4,3.135
	l-0.055,1.327l-75.978-3.765l-75.678-3.923c0,0-16.889,0.872-23.44,2.877V152.857z"/>
<path fill="#D8D8D8" d="M224.771,158.581c0,0,15.418-2.659,23.526-2.397c8.108,0.262,84.224,3.924,84.224,3.924l67.399,3.135
	l-0.054,1.327l-75.978-3.764l-75.679-3.924c0,0-16.889,0.872-23.439,2.877V158.581z"/>
<path fill="#D8D8D8" d="M225.031,164.582c0,0,15.419-2.659,23.526-2.397c8.109,0.262,84.224,3.924,84.224,3.924l67.4,3.135
	l-0.055,1.328l-75.977-3.765l-75.679-3.923c0,0-16.889,0.872-23.44,2.877V164.582z"/>
<path fill="#D8D8D8" d="M224.508,170.306c0,0,15.419-2.66,23.527-2.397c8.108,0.262,84.223,3.923,84.223,3.923l67.4,3.136
	l-0.055,1.327l-75.978-3.764l-75.678-3.924c0,0-16.889,0.872-23.44,2.877V170.306z"/>
<path fill="#D8D8D8" d="M224.149,177.138c0,0,15.419-2.659,23.527-2.397c8.108,0.261,84.223,3.923,84.223,3.923l67.399,3.136
	l-0.054,1.327l-75.978-3.765l-75.679-3.923c0,0-16.888,0.872-23.439,2.877V177.138z"/>
<path fill="#D8D8D8" d="M223.625,182.861c0,0,15.419-2.659,23.527-2.397c8.108,0.262,84.224,3.924,84.224,3.924l67.399,3.135
	l-0.054,1.327l-75.978-3.765l-75.679-3.923c0,0-16.888,0.872-23.44,2.877V182.861z"/>
<path fill="#D8D8D8" d="M223.888,188.862c0,0,15.418-2.659,23.526-2.397c8.108,0.261,84.224,3.923,84.224,3.923l67.399,3.135
	l-0.054,1.328l-75.978-3.766l-75.679-3.923c0,0-16.888,0.873-23.439,2.877V188.862z"/>
<path fill="#D8D8D8" d="M223.364,194.586c0,0,15.418-2.659,23.526-2.397s84.224,3.924,84.224,3.924l67.399,3.135l-0.054,1.327
	l-75.978-3.765l-75.679-3.924c0,0-16.889,0.872-23.439,2.878V194.586z"/>
<path fill="#D8D8D8" d="M223.233,200.97c0,0,15.418-2.659,23.527-2.397c8.108,0.262,84.223,3.924,84.223,3.924l67.399,3.135
	l-0.054,1.327l-75.978-3.765l-75.679-3.924c0,0-16.888,0.872-23.439,2.878V200.97z"/>
<path fill="#D8D8D8" d="M222.71,206.692c0,0,15.418-2.659,23.526-2.397c8.108,0.263,84.224,3.924,84.224,3.924l67.399,3.136
	l-0.054,1.326l-75.978-3.764l-75.679-3.924c0,0-16.888,0.872-23.439,2.877V206.692z"/>
<path fill="#D8D8D8" d="M222.972,212.694c0,0,15.418-2.659,23.526-2.397s84.224,3.924,84.224,3.924l67.4,3.135l-0.055,1.327
	l-75.978-3.765l-75.678-3.924c0,0-16.889,0.872-23.44,2.878V212.694z"/>
<path fill="#D8D8D8" d="M222.448,218.417c0,0,15.418-2.659,23.526-2.397s84.224,3.924,84.224,3.924l67.399,3.136l-0.054,1.327
	l-75.978-3.765l-75.679-3.924c0,0-16.889,0.872-23.439,2.877V218.417z"/>
<path fill="#D8D8D8" d="M221.19,230.249c0,0,15.419-2.657,23.527-2.396c8.108,0.262,84.223,3.924,84.223,3.924l67.4,3.135
	l-0.054,1.327l-75.978-3.765l-75.679-3.924c0,0-16.888,0.872-23.44,2.878V230.249z"/>
<path fill="#D8D8D8" d="M220.668,235.974c0,0,15.418-2.659,23.526-2.398c8.108,0.262,84.224,3.924,84.224,3.924l67.399,3.135
	l-0.054,1.328l-75.978-3.766l-75.679-3.923c0,0-16.888,0.872-23.439,2.877V235.974z"/>
<path fill="#D8D8D8" d="M220.929,241.975c0,0,15.418-2.659,23.527-2.397c8.108,0.261,84.223,3.923,84.223,3.923l67.4,3.136
	l-0.054,1.328l-75.978-3.766l-75.679-3.924c0,0-16.889,0.872-23.44,2.878V241.975z"/>
<path fill="#D8D8D8" d="M220.405,247.697c0,0,15.418-2.658,23.526-2.397c8.108,0.263,84.224,3.924,84.224,3.924l67.4,3.136
	l-0.055,1.326l-75.978-3.765l-75.678-3.923c0,0-16.889,0.872-23.44,2.878V247.697z"/>
<path fill="#D8D8D8" d="M220.274,254.082c0,0,15.419-2.66,23.527-2.398s84.224,3.924,84.224,3.924l67.399,3.135l-0.054,1.327
	l-75.978-3.765l-75.679-3.924c0,0-16.888,0.873-23.44,2.879V254.082z"/>
<path fill="#D8D8D8" d="M219.752,259.805c0,0,15.418-2.659,23.526-2.397s84.224,3.924,84.224,3.924l67.399,3.135l-0.054,1.327
	l-75.978-3.765l-75.679-3.924c0,0-16.888,0.872-23.439,2.878V259.805z"/>
<path fill="#D8D8D8" d="M220.013,265.806c0,0,15.418-2.658,23.527-2.396c8.108,0.262,84.223,3.923,84.223,3.923l67.4,3.136
	l-0.055,1.327l-75.977-3.766l-75.679-3.923c0,0-16.889,0.872-23.44,2.878V265.806z"/>
<path fill="#D8D8D8" d="M219.489,271.529c0,0,15.419-2.66,23.526-2.398c8.108,0.263,84.224,3.924,84.224,3.924l67.4,3.136
	l-0.055,1.327l-75.978-3.765l-75.678-3.924c0,0-16.889,0.872-23.44,2.878V271.529z"/>
<path fill="#D8D8D8" d="M219.131,278.361c0,0,15.419-2.658,23.526-2.396c8.108,0.262,84.224,3.924,84.224,3.924l67.399,3.135
	l-0.054,1.327l-75.978-3.765l-75.679-3.924c0,0-16.888,0.872-23.439,2.878V278.361z"/>
<path fill="#D8D8D8" d="M218.606,284.085c0,0,15.419-2.659,23.527-2.397c8.109,0.262,84.223,3.924,84.223,3.924l67.4,3.135
	l-0.054,1.328l-75.978-3.766l-75.679-3.924c0,0-16.889,0.873-23.44,2.878V284.085z"/>
<path fill="#D8D8D8" d="M218.868,290.086c0,0,15.419-2.658,23.527-2.397c8.108,0.262,84.223,3.924,84.223,3.924l67.4,3.136
	l-0.055,1.327l-75.977-3.765l-75.679-3.924c0,0-16.889,0.872-23.44,2.878V290.086z"/>
<path fill="#D8D8D8" d="M218.345,295.81c0,0,15.419-2.659,23.527-2.397s84.224,3.924,84.224,3.924l67.399,3.135l-0.054,1.328
	l-75.978-3.766l-75.68-3.924c0,0-16.887,0.873-23.439,2.878V295.81z"/>
<path fill="#D8D8D8" d="M218.215,302.193c0,0,15.419-2.659,23.527-2.397c8.107,0.262,84.223,3.924,84.223,3.924l67.399,3.135
	l-0.054,1.327l-75.978-3.765l-75.679-3.924c0,0-16.888,0.872-23.439,2.878V302.193z"/>
<path fill="#D8D8D8" d="M217.69,307.917c0,0,15.419-2.659,23.527-2.397s84.223,3.923,84.223,3.923l67.4,3.137l-0.055,1.325
	l-75.977-3.764l-75.679-3.924c0,0-16.888,0.872-23.44,2.877V307.917z"/>
<path fill="#D8D8D8" d="M217.952,313.918c0,0,15.419-2.659,23.527-2.396c8.108,0.262,84.223,3.923,84.223,3.923l67.4,3.135
	l-0.055,1.327l-75.978-3.765l-75.678-3.924c0,0-16.888,0.872-23.44,2.878V313.918z"/>
<path fill="#D8D8D8" d="M217.43,319.641c0,0,15.418-2.658,23.526-2.396s84.224,3.924,84.224,3.924l67.399,3.135l-0.054,1.327
	l-75.978-3.765l-75.68-3.924c0,0-16.887,0.872-23.438,2.877V319.641z"/>
</svg>
