<?xml version="1.0" encoding="utf-8"?>
<!-- Generator: Adobe Illustrator 15.0.0, SVG Export Plug-In . SVG Version: 6.00 Build 0)  -->
<!DOCTYPE svg PUBLIC "-//W3C//DTD SVG 1.1//EN" "http://www.w3.org/Graphics/SVG/1.1/DTD/svg11.dtd">
<svg version="1.1" id="Layer_1" xmlns="http://www.w3.org/2000/svg" xmlns:xlink="http://www.w3.org/1999/xlink" x="0px" y="0px"
	 width="300px" height="300px" viewBox="0 0 300 300" enable-background="new 0 0 300 300" xml:space="preserve">
<path fill="#1E1E1E" d="M212.75,18.25c0,0-6.25-5-14.75-4.75s-16,4.75-16,4.75S173.25,8,167.25,8.5s-10,5-12.75,13S151,40.25,151,43
	s-2,6-2,6s-21.75,31.25-32.5,51s-30,48.25-31.25,86c0,0,0,10.5,3,17.5l1.25,2.5c0,0-3.25,0-6.75,4.75s-17.5,14.5-24.5,20.25
	S41.75,251,42,265s33.5,28,67.75,18.75s51.5-4,59.75-1s8.25,1.5,4.5-3s-15.25-9.75-26.5-12s-29.25,3-37.5,4.75S78,277,70.75,268
	s7.75-24.75,17-29.25s17.25-3.75,18-7.5s3.5-3.25,3.5-3.25s2.25,9,4.5,9.25s-3.25,5,0,10.25s4,0,2,4.5s-1.75,9.25,0.5,7.5
	s6-6.75,9-8c0,0,2,2.25,3.75,0.25c0,0,5.5,5.75,8,9s1.75-3.75,0.25-8.25s-3-4.75-3-4.75s3.5-0.5,2.5-3.25c0,0,5.5-1.5,11,4.5
	s0.25-5-3-8s-8-2.25-8-2.25s2-1.75,1-4s2.75,2,11.25,5.5s31.25,10.25,55.75-7.5s30-31.25,35.5-43.75s4-25,0-28.5s-6-1.75-6-1.75
	s-1.75-24.5-7.25-38.5s-5.5-14-5.5-14s0.75-2.5,5-3s6.25,1.75,6.25,1.75l0.75,5.5c0,0,8.5,5,18.5,0V89l2.75-3.75
	c0,0-11.248-0.444-19-0.25c-4.141,0.104-4.531,0.062-4.531,0.062l0.031,3.188V91c0,0-2.75-0.5-7-4s-7.5-3.5-7.5-3.5s1-6,1.75-7
	s3,1,8.5-4.25s8.25-8.25,8.25-8.25s3.25,0.25,6-3.75s2-6.5,2-6.5L243.5,51c0,0,3-0.75,2.5-4s-3.5-3.75-3.5-3.75l-4.25-2l-6.5-8.25
	c0,0,1-2.75,1.25-10.75s-1-10.5-5.75-10.75S216.25,14.75,212.75,18.25z"/>
<path fill="#1E1E1E" d="M250.833,89.833c0,0,3-0.167,4.667,1.333s-2,3.667-3.5,4.333s1.852,2.167,3.926,2.833
	s1.574,2.333-1.176,2.667s-5.083,0-5.083,0s4.332,2.333,6.666,3.333s1.369,4.167-2.898,3.167s-6.768-0.667-6.768-0.667
	L250.833,89.833z"/>
<ellipse fill="#1E1E1E" cx="237" cy="73.083" rx="2.5" ry="2.25"/>
<ellipse fill="#1E1E1E" cx="248.893" cy="74.917" rx="3.226" ry="3.083"/>
<circle fill="#1E1E1E" cx="252.083" cy="61.083" r="4.417"/>
<ellipse fill="#1E1E1E" cx="241.583" cy="82.083" rx="2.083" ry="1.917"/>
<path fill="#1E1E1E" d="M233.333,39.333c0.167-0.667,2.002-6.833,8.251-12.333c0,0-3.417,5.833-4.584,11
	S233.333,39.333,233.333,39.333z"/>
<path fill="#1E1E1E" d="M257.571,25.333c0,0-13.616-0.081-23.844,12.793s-2.228,6.707-2.228,6.707l5-5.333
	C236.5,39.5,245.143,29.333,257.571,25.333z"/>
<path fill="#1E1E1E" d="M254.75,33.851c0,0-9.999-0.184-17.291,8.316s-2.793,6.667-1.126,4.833S242.833,37.535,254.75,33.851z"/>
<path fill="#1E1E1E" d="M254.75,37.167c0,0-11.583-1.333-20.25,6.833s-1.833,7.333,0,5.167S243.5,39,254.75,37.167z"/>
<path fill="#1E1E1E" d="M230.207,103.544c0,0-3.207,3.706-11.957,7.706s-12-3.853-12-3.853s2-2.559,3.5-3.853S222,99.021,223,98.76
	S230.207,103.544,230.207,103.544z"/>
<path fill="#1E1E1E" d="M216.496,223.332c0,0,2.17,0.335,2.67,2.169s7.499-0.167,11.166,2.5s4.5,3.334,3,3.167
	s-4.629-1.334-8.064-1.167s-1.768,0.214-0.602,1.19s4.832-0.69,11.666,2.81s5.833,2.833,4.5,3s-5.371-1.832-11.686-1.666
	s-9.147,1-9.147,1s5.334-0.333,10.167,1.5s7.5,3.333,7.5,3.333s-0.666,1.333-3.5,0s-19.834-2.167-19.834-2.167s-2-2.499-2.833-1.666
	s0.833,3.166-4.5,3.166s-12-12.333-12-12.333L216.496,223.332z"/>
<path fill="#1E1E1E" d="M231.231,86.333c0,0-2.088-1.262-0.013-1.271s1.073,1.271,1.073,1.271H231.231z"/>
<ellipse fill="#EF3742" cx="163" cy="122.36" rx="10.333" ry="9.975"/>
<ellipse fill="#EF3742" cx="183.667" cy="122.359" rx="10.333" ry="9.975"/>
<path fill="#EF3742" d="M153.063,125.072c0,0,1.86,3.39,4.898,5.993S172.668,140,173.334,146s0-23.641,0-23.641L153.063,125.072z"/>
<path fill="#EF3742" d="M192.845,125.206c0,0-1.705,3.454-4.599,6.165c-2.894,2.71-14.138,9.459-14.573,15.479
	c-0.435,6.021-0.865-23.625-0.865-23.625L192.845,125.206z"/>
<path fill="#1E1E1E" d="M177.015,140.752L172.25,146c0,0,1.75-1.498-1.125-2.624s2.505,4.28,2.505,4.28l2.745,2.094
	c0,0,1.25-1.666,1.25-2.146s-1.002-6.421-1.002-6.421"/>
</svg>
